<?xml version="1.0" encoding="UTF-8" standalone="no"?>
<!DOCTYPE svg PUBLIC "-//W3C//DTD SVG 1.1//EN"
 "http://www.w3.org/Graphics/SVG/1.1/DTD/svg11.dtd">
<!-- Generated by graphviz version 2.36.0 (20140111.2315)
 -->
<!-- Title: G Pages: 1 -->
<svg width="441pt" height="426pt"
 viewBox="0.00 0.00 441.00 426.00" xmlns="http://www.w3.org/2000/svg" xmlns:xlink="http://www.w3.org/1999/xlink">
<g id="graph0" class="graph" transform="scale(1 1) rotate(0) translate(4 422)">
<title>G</title>
<polygon fill="white" stroke="none" points="-4,4 -4,-422 437,-422 437,4 -4,4"/>
<!-- PersistenceManager -->
<g id="node1" class="node"><title>PersistenceManager</title>
<polygon fill="none" stroke="black" points="107,-75 107,-111 197,-111 197,-75 107,-75"/>
<text text-anchor="middle" x="152" y="-91.1" font-family="Bitstream Vera Sans" font-size="8.00">PersistenceManager</text>
</g>
<!-- Cache -->
<g id="node2" class="node"><title>Cache</title>
<polygon fill="none" stroke="black" points="40.5,-1 40.5,-37 141.5,-37 141.5,-1 40.5,-1"/>
<text text-anchor="middle" x="91" y="-26.1" font-family="Bitstream Vera Sans" font-size="8.00">Cache</text>
<polyline fill="none" stroke="black" points="40.5,-19 141.5,-19 "/>
<text text-anchor="middle" x="91" y="-8.1" font-family="Bitstream Vera Sans" font-size="8.00">Redis/MemCache/Etc...</text>
</g>
<!-- PersistenceManager&#45;&gt;Cache -->
<g id="edge1" class="edge"><title>PersistenceManager&#45;&gt;Cache</title>
<path fill="none" stroke="black" d="M137.544,-74.937C127.961,-63.626 115.424,-48.8282 105.776,-37.4407"/>
</g>
<!-- Database -->
<g id="node3" class="node"><title>Database</title>
<polygon fill="none" stroke="black" points="159.5,-1 159.5,-37 268.5,-37 268.5,-1 159.5,-1"/>
<text text-anchor="middle" x="214" y="-26.1" font-family="Bitstream Vera Sans" font-size="8.00">Database</text>
<polyline fill="none" stroke="black" points="159.5,-19 268.5,-19 "/>
<text text-anchor="middle" x="214" y="-8.1" font-family="Bitstream Vera Sans" font-size="8.00">PostgreSQL/MySQL/Etc...</text>
</g>
<!-- PersistenceManager&#45;&gt;Database -->
<g id="edge2" class="edge"><title>PersistenceManager&#45;&gt;Database</title>
<path fill="none" stroke="black" d="M166.693,-74.937C176.433,-63.626 189.176,-48.8282 198.982,-37.4407"/>
</g>
<!-- WorkerManager -->
<g id="node4" class="node"><title>WorkerManager</title>
<polygon fill="none" stroke="black" points="0,-361.5 0,-412.5 96,-412.5 96,-361.5 0,-361.5"/>
<text text-anchor="middle" x="48" y="-402.1" font-family="Bitstream Vera Sans" font-size="8.00">WorkerManager</text>
<polyline fill="none" stroke="black" points="0,-395.5 96,-395.5 "/>
<text text-anchor="start" x="8" y="-385.1" font-family="Bitstream Vera Sans" font-size="8.00">+ job_identifier : String</text>
<polyline fill="none" stroke="black" points="0,-378.5 96,-378.5 "/>
<text text-anchor="middle" x="48" y="-368.1" font-family="Bitstream Vera Sans" font-size="8.00"> </text>
</g>
<!-- Worker -->
<g id="node5" class="node"><title>Worker</title>
<polygon fill="none" stroke="black" points="50,-204 50,-264 168,-264 168,-204 50,-204"/>
<text text-anchor="middle" x="109" y="-253.6" font-family="Bitstream Vera Sans" font-size="8.00">Worker</text>
<polyline fill="none" stroke="black" points="50,-247 168,-247 "/>
<text text-anchor="start" x="58" y="-236.6" font-family="Bitstream Vera Sans" font-size="8.00">+ args : Array</text>
<text text-anchor="start" x="58" y="-227.6" font-family="Bitstream Vera Sans" font-size="8.00">+ state : WorkerState</text>
<polyline fill="none" stroke="black" points="50,-221 168,-221 "/>
<text text-anchor="start" x="58" y="-210.6" font-family="Bitstream Vera Sans" font-size="8.00">+ perform(s: Object) : Object</text>
</g>
<!-- WorkerManager&#45;&gt;Worker -->
<g id="edge8" class="edge"><title>WorkerManager&#45;&gt;Worker</title>
<path fill="none" stroke="black" d="M57.9365,-361.403C67.5398,-337.631 82.2344,-301.256 93.3985,-273.62"/>
<polygon fill="none" stroke="black" points="96.6855,-274.827 97.1861,-264.244 90.1951,-272.205 96.6855,-274.827"/>
<text text-anchor="middle" x="97.9718" y="-277.324" font-family="Bitstream Vera Sans" font-size="8.00">1..*</text>
</g>
<!-- PersistenceLayer -->
<g id="node7" class="node"><title>PersistenceLayer</title>
<ellipse fill="none" stroke="black" cx="152" cy="-149" rx="0.25" ry="0.5"/>
</g>
<!-- WorkerManager&#45;&gt;PersistenceLayer -->
<g id="edge3" class="edge"><title>WorkerManager&#45;&gt;PersistenceLayer</title>
<path fill="none" stroke="black" stroke-dasharray="1,5" d="M38.3079,-361.37C24.0277,-320.605 2.8994,-238.411 41,-186 71.0192,-144.706 149.496,-149.826 151.942,-149.996"/>
</g>
<!-- Worker&#45;&gt;PersistenceLayer -->
<g id="edge4" class="edge"><title>Worker&#45;&gt;PersistenceLayer</title>
<path fill="none" stroke="black" stroke-dasharray="1,5" d="M124.039,-203.971C136.052,-180.784 151.031,-151.871 151.955,-150.087"/>
</g>
<!-- WorkerState -->
<g id="node6" class="node"><title>WorkerState</title>
<polygon fill="none" stroke="black" points="135.5,-357 135.5,-417 212.5,-417 212.5,-357 135.5,-357"/>
<text text-anchor="middle" x="174" y="-406.6" font-family="Bitstream Vera Sans" font-size="8.00">WorkerState</text>
<polyline fill="none" stroke="black" points="135.5,-400 212.5,-400 "/>
<text text-anchor="start" x="143.5" y="-389.6" font-family="Bitstream Vera Sans" font-size="8.00">+ state : String</text>
<text text-anchor="middle" x="174" y="-380.6" font-family="Bitstream Vera Sans" font-size="8.00">+ payload : Hash</text>
<polyline fill="none" stroke="black" points="135.5,-374 212.5,-374 "/>
<text text-anchor="middle" x="174" y="-363.6" font-family="Bitstream Vera Sans" font-size="8.00"> </text>
</g>
<!-- WorkerState&#45;&gt;Worker -->
<g id="edge9" class="edge"><title>WorkerState&#45;&gt;Worker</title>
<path fill="none" stroke="black" d="M161.467,-356.886C151.216,-333.072 136.638,-299.205 125.449,-273.212"/>
<polygon fill="none" stroke="black" points="128.663,-271.826 121.494,-264.025 122.233,-274.594 128.663,-271.826"/>
<text text-anchor="middle" x="132.692" y="-272.105" font-family="Bitstream Vera Sans" font-size="8.00">1</text>
</g>
<!-- WorkerState&#45;&gt;PersistenceLayer -->
<g id="edge5" class="edge"><title>WorkerState&#45;&gt;PersistenceLayer</title>
<path fill="none" stroke="black" stroke-dasharray="1,5" d="M180.047,-356.701C186.998,-316.984 195.265,-244.325 177,-186 171.36,-167.992 153.186,-151.089 152.055,-150.051"/>
</g>
<!-- PersistenceLayer&#45;&gt;PersistenceManager -->
<g id="edge7" class="edge"><title>PersistenceLayer&#45;&gt;PersistenceManager</title>
<path fill="none" stroke="black" stroke-dasharray="1,5" d="M152,-147.845C152,-146.328 152,-133.903 152,-121.372"/>
<polygon fill="none" stroke="black" points="155.5,-121.058 152,-111.058 148.5,-121.058 155.5,-121.058"/>
</g>
<!-- JobManager -->
<g id="node8" class="node"><title>JobManager</title>
<polygon fill="none" stroke="black" points="224.5,-186.5 224.5,-281.5 433.5,-281.5 433.5,-186.5 224.5,-186.5"/>
<text text-anchor="middle" x="329" y="-271.1" font-family="Bitstream Vera Sans" font-size="8.00">JobManager</text>
<polyline fill="none" stroke="black" points="224.5,-264.5 433.5,-264.5 "/>
<text text-anchor="middle" x="329" y="-254.1" font-family="Bitstream Vera Sans" font-size="8.00"> </text>
<polyline fill="none" stroke="black" points="224.5,-247.5 433.5,-247.5 "/>
<text text-anchor="start" x="232.5" y="-237.1" font-family="Bitstream Vera Sans" font-size="8.00">+ create_jobs(d: Iterable) : void</text>
<polyline fill="none" stroke="black" points="224.5,-230.5 433.5,-230.5 "/>
<text text-anchor="start" x="232.5" y="-220.1" font-family="Bitstream Vera Sans" font-size="8.00">Responsibilities:</text>
<text text-anchor="start" x="232.5" y="-211.1" font-family="Bitstream Vera Sans" font-size="8.00">Parse JobDefinition</text>
<text text-anchor="start" x="232.5" y="-202.1" font-family="Bitstream Vera Sans" font-size="8.00">Persists Workers and a WorkerManager.</text>
<text text-anchor="start" x="232.5" y="-193.1" font-family="Bitstream Vera Sans" font-size="8.00">Assigns UUIDs to Workers for tracking state in Cache.</text>
</g>
<!-- JobManager&#45;&gt;PersistenceLayer -->
<g id="edge6" class="edge"><title>JobManager&#45;&gt;PersistenceLayer</title>
<path fill="none" stroke="black" stroke-dasharray="1,5" d="M229.635,-186.405C190.549,-168.077 154.333,-151.094 152.108,-150.051"/>
</g>
</g>
</svg>
